<?xml version="1.0" encoding="UTF-8" standalone="no" ?>
<!DOCTYPE svg PUBLIC "-//W3C//DTD SVG 1.1//EN" "http://www.w3.org/Graphics/SVG/1.1/DTD/svg11.dtd">
<svg xmlns="http://www.w3.org/2000/svg" xmlns:xlink="http://www.w3.org/1999/xlink" version="1.1" width="500" height="500" viewBox="0 0 500 500" xml:space="preserve">
<desc>Created with Fabric.js 3.6.3</desc>
<defs>
</defs>
<g transform="matrix(5 0 0 5 250 250)"  >
<polygon style="stroke: rgb(0,0,0); stroke-width: 0; stroke-dasharray: none; stroke-linecap: butt; stroke-dashoffset: 0; stroke-linejoin: miter; stroke-miterlimit: 4; fill: rgb(255,255,255); fill-rule: nonzero; opacity: 1;" vector-effect="non-scaling-stroke"  points="-50,-50 -50,50 50,50 50,-50 " />
</g>
<g transform="matrix(1.8 0 0 1.8 100.05 244.04)"  >
<g style=""   >
		<g transform="matrix(1 0 0 1 1.32 36.44)" id="Path"  >
<polygon style="stroke: none; stroke-width: 1; stroke-dasharray: none; stroke-linecap: butt; stroke-dashoffset: 0; stroke-linejoin: miter; stroke-miterlimit: 4; fill: rgb(255,255,255); fill-rule: evenodd; opacity: 1;"  points="-27.2,-13.4 27.21,-13.4 27.21,13.4 -27.2,13.4 -27.2,-13.4 " />
</g>
		<g transform="matrix(1 0 0 1 0 0)" id="Combined-Shape"  >
<path style="stroke: none; stroke-width: 1; stroke-dasharray: none; stroke-linecap: butt; stroke-dashoffset: 0; stroke-linejoin: miter; stroke-miterlimit: 4; fill: rgb(223,0,0); fill-rule: evenodd; opacity: 1;"  transform=" translate(-143.32, -87.53)" d="M 148.07 174.88 c -2.8 0 -8.4 -0.42 -11.2 -0.42 c -2.63 0 -7.81 -0.35 -10.44 -0.35 c -2 0 -6 0.35 -8 0.35 c -1.78 0 -7.32 -1.71 -7.32 -3.82 c 0 0 0.37 -16.22 0.37 -21.65 c 0 -3.3 -0.08 -10 -0.37 -13.28 s 0 -9.57 0 -12.75 c 0 -4.11 0.45 -12.53 0.45 -16.63 c 0 -2.62 -0.45 -7.63 -0.45 -10.25 c 0 -13.28 10.23 -21.35 13 -25.5 c 0 0 1.52 -12.32 1.39 -16.59 c -0.11 -3.91 1.19 -11.31 1.28 -15.25 s 1.29 -11.81 1.62 -15.75 c 0.4 -4.81 1.32 -19.24 1.32 -19.24 c 0.12 -2 3.37 -3.56 5.06 -3.56 L 143 0.52 l 8.82 -0.33 c 1.69 0 6 1.56 6.09 3.56 c 0 0 0.05 7.72 0.26 10.47 c 0.27 3.47 1.38 11 1.65 14.43 c 0.3 3.87 1.41 11.63 1.19 15.51 a 63.91 63.91 0 0 0 1.15 15 c 0.72 2.8 0.89 11.53 0.89 11.53 c 2.77 4.15 12.45 11.45 12.45 24.73 c 0 3.24 0.27 9.73 0 13 c -0.34 4 0.49 11.16 0 15 c -0.44 3.39 0 10.24 0 13.66 c 0 3.65 -0.34 11.08 -0.34 14.73 c 0 4.58 0.34 18.18 0.34 18.18 c 0 2.11 -5.55 4.48 -7.33 4.48 C 168.17 174.46 153.1 174.88 148.07 174.88 Z m -14.43 -6.71 c 3.34 0 13 -0.59 16.32 -0.59 c 4.48 0 14.64 0.53 16.83 -1.39 s 1.75 -15 1 -20.71 a 30.31 30.31 0 0 1 -0.28 -3.81 c 0 -2.38 0.16 -5.11 0.23 -7.62 c 0.07 -2.14 0.05 -4.11 0.05 -5.58 c 0 -3.39 0.76 -10 0.76 -13.39 c 0 -4.18 -0.76 -16.86 -0.76 -16.86 c 0 -4.2 -1.94 -10.62 -5.51 -14.41 s -4.37 -8 -5.93 -11 c -1.91 -3.56 -2.38 -12.12 -2.61 -16.38 c -0.21 -3.94 -1.24 -11.67 -1.46 -15.61 c -0.26 -4.82 -1.15 -14.41 -1.41 -19.23 c -0.2 -3.73 0 -15 0 -15 s -5.47 -0.79 -7.57 -0.91 a 47 47 0 0 0 -7.93 0.91 s -0.08 16.57 0 22.16 c 0 3.33 -0.74 9.35 -0.91 12.5 s -0.77 9.35 -0.81 15.18 c -0.07 8.57 -1.28 13.65 -2.23 16.38 c -1.33 3.8 -3.32 6.43 -6.41 10 s -6.2 9.34 -6.2 15.36 c 0 0 -0.1 7.8 0 10.4 c 0.19 5.09 -0.2 15.62 -0.2 20.81 c 0 4.18 -0.26 12.09 0.2 16.68 a 78.53 78.53 0 0 1 0 12 c -0.24 2.43 0.3 7.64 1.22 8.81 S 129.21 168.17 133.64 168.17 Z" stroke-linecap="round" />
</g>
		<g transform="matrix(1 0 0 1 -5.63 37.06)" id="Group-24"  >
<polygon style="stroke: none; stroke-width: 1; stroke-dasharray: none; stroke-linecap: butt; stroke-dashoffset: 0; stroke-linejoin: miter; stroke-miterlimit: 4; fill: rgb(223,0,0); fill-rule: evenodd; opacity: 1;"  points="0.01,-4.9 0.95,-1.66 4.18,-2.46 1.82,-0.05 4.18,2.39 0.95,1.47 0.01,4.9 -0.87,1.48 -4.18,2.38 -1.76,-0.04 -4.18,-2.46 -0.87,-1.65 0.01,-4.9 " />
</g>
		<g transform="matrix(1 0 0 1 14.99 37.06)" id="Group-24"  >
<polygon style="stroke: none; stroke-width: 1; stroke-dasharray: none; stroke-linecap: butt; stroke-dashoffset: 0; stroke-linejoin: miter; stroke-miterlimit: 4; fill: rgb(223,0,0); fill-rule: evenodd; opacity: 1;"  points="0.02,-4.9 0.95,-1.66 4.18,-2.46 1.82,-0.05 4.18,2.39 0.95,1.47 0.02,4.9 -0.87,1.48 -4.18,2.38 -1.76,-0.04 -4.18,-2.46 -0.87,-1.65 0.02,-4.9 " />
</g>
		<g transform="matrix(1 0 0 1 4.68 37.06)" id="Group-24"  >
<polygon style="stroke: none; stroke-width: 1; stroke-dasharray: none; stroke-linecap: butt; stroke-dashoffset: 0; stroke-linejoin: miter; stroke-miterlimit: 4; fill: rgb(223,0,0); fill-rule: evenodd; opacity: 1;"  points="0.01,-4.9 0.95,-1.66 4.18,-2.46 1.82,-0.05 4.18,2.39 0.95,1.47 0.01,4.9 -0.87,1.48 -4.18,2.38 -1.76,-0.04 -4.18,-2.46 -0.87,-1.65 0.01,-4.9 " />
</g>
		<g transform="matrix(1 0 0 1 -15.94 37.06)" id="Group-24"  >
<polygon style="stroke: none; stroke-width: 1; stroke-dasharray: none; stroke-linecap: butt; stroke-dashoffset: 0; stroke-linejoin: miter; stroke-miterlimit: 4; fill: rgb(223,0,0); fill-rule: evenodd; opacity: 1;"  points="0.02,-4.9 0.95,-1.66 4.18,-2.46 1.82,-0.05 4.18,2.39 0.95,1.47 0.02,4.9 -0.87,1.48 -4.18,2.38 -1.76,-0.04 -4.18,-2.46 -0.87,-1.65 0.02,-4.9 " />
</g>
		<g transform="matrix(1 0 0 1 0.31 23.8)" id="Group-24"  >
<path style="stroke: none; stroke-width: 1; stroke-dasharray: none; stroke-linecap: butt; stroke-dashoffset: 0; stroke-linejoin: miter; stroke-miterlimit: 4; fill: rgb(199,230,248); fill-rule: evenodd; opacity: 1;"  transform=" translate(-143.63, -111.33)" d="M 118.59 115.41 s 5 0.8 15.65 0 a 180.5 180.5 0 0 1 23.7 0.27 l 10.74 -1.16 l -0.47 -7.62 s -6.52 1.54 -18.83 0.92 s -22.54 0 -22.54 0 h -8.25 Z" stroke-linecap="round" />
</g>
		<g transform="matrix(1 0 0 1 -0.3 50.82)" id="Group-24"  >
<path style="stroke: none; stroke-width: 1; stroke-dasharray: none; stroke-linecap: butt; stroke-dashoffset: 0; stroke-linejoin: miter; stroke-miterlimit: 4; fill: rgb(199,230,248); fill-rule: evenodd; opacity: 1;"  transform=" translate(-143.03, -138.35)" d="M 118.59 142.48 s 5 0.54 15.65 -0.26 a 181.37 181.37 0 0 1 23.7 0.26 l 9.56 -0.81 l 0.23 -7.62 s -6 1.19 -18.35 0.58 s -22.54 0 -22.54 0 l -8.25 -0.11 a 28.49 28.49 0 0 0 -0.27 3.83 A 36.39 36.39 0 0 0 118.59 142.48 Z" stroke-linecap="round" />
</g>
</g>
</g>
<g transform="matrix(0.31 0 0 0.31 325.31 241.93)"  >
<path style="stroke: none; stroke-width: 1; stroke-dasharray: none; stroke-linecap: butt; stroke-dashoffset: 0; stroke-linejoin: miter; stroke-miterlimit: 4; fill: rgb(212,0,0); fill-rule: nonzero; opacity: 1;"  transform=" translate(-500, -500.06)" d="M 990 95.2 c 0.1 5.5 -1.8 11 -6 15.2 c -0.9 0.9 -2 1.3 -3.1 2 l -57.3 57.3 l 14.7 14.7 c 1 0.7 2.2 1.1 3.1 2 c 4.2 4.2 6.1 9.7 6 15.2 c 0.1 5.5 -1.8 11 -6 15.2 c -0.9 0.9 -2 1.3 -3.1 2 L 262.2 895.1 c -2.4 4.5 -6.1 8.4 -11.1 10.3 L 42.2 987.3 c -1.2 0.7 -2.5 1.1 -3.9 1.5 l -0.3 0.1 c -0.2 0.1 -0.4 0 -0.5 0.1 c -2 0.5 -4 1 -6.1 1 c -2.1 0.1 -4 -0.3 -6 -0.9 c -0.4 -0.1 -0.8 0 -1.3 -0.2 c -0.2 -0.1 -0.3 -0.2 -0.4 -0.3 c -1.9 -0.7 -3.5 -1.8 -5.1 -3 c -0.8 -0.6 -1.7 -1.1 -2.4 -1.8 c -0.7 -0.7 -1.2 -1.6 -1.8 -2.4 c -1.2 -1.6 -2.3 -3.2 -3 -5.1 c -0.1 -0.2 -0.2 -0.3 -0.3 -0.4 c -0.1 -0.4 -0.1 -0.9 -0.2 -1.3 c -0.5 -2 -0.9 -3.9 -0.9 -6 c 0 -2.1 0.4 -4.1 1 -6.1 c 0.1 -0.2 0 -0.3 0.1 -0.5 l 0.1 -0.3 c 0.4 -1.3 0.8 -2.6 1.5 -3.9 l 81.9 -208.9 c 1.9 -5 5.7 -8.8 10.3 -11.1 l 591.8 -591.8 c -5.6 -17.8 -22.1 -30.8 -41.7 -30.8 c -13 0 -24.5 5.7 -32.6 14.7 l -0.1 0 l -69.3 69.3 l 0.1 0.1 L 407.4 344.9 c -8.1 8.1 -21.3 8.1 -29.4 0 c -8.1 -8.1 -8.1 -21.3 0 -29.4 l 214.2 -214.2 c 0.4 -0.4 0.8 -0.5 1.2 -0.8 c 15.5 -16.3 37.3 -26.6 61.6 -26.6 c 30.9 0 57.5 16.7 72.4 41.4 L 781 61.7 c 0.7 -1 1.1 -2.2 2 -3 c 4.2 -4.2 9.7 -6.1 15.2 -6 c 5.5 -0.1 11 1.8 15.2 6 c 0.9 0.9 1.3 2 2 3 l 14.7 14.7 l 57.3 -57.3 c 0.7 -1 1.1 -2.2 2 -3 c 4.2 -4.2 9.7 -6.1 15.2 -6 c 5.5 -0.1 11 1.8 15.2 6 c 0.9 0.9 1.3 2 2 3 L 981 77.9 c 1 0.7 2.2 1.1 3.1 2 C 988.2 84.2 990.1 89.7 990 95.2 z M 70.7 929.3 L 206.6 876 L 124 793.4 L 70.7 929.3 z M 798.2 103.3 L 145.5 756 l 98.5 98.5 l 652.7 -652.7 L 798.2 103.3 z M 904.8 60.7 l -45.2 45.2 l 34.5 34.5 l 45.2 -45.2 L 904.8 60.7 z" stroke-linecap="round" />
</g>
<g transform="matrix(1 0 0 1 265 276)"  >
<path style="stroke: rgb(0,0,0); stroke-width: 1; stroke-dasharray: none; stroke-linecap: round; stroke-dashoffset: 0; stroke-linejoin: round; stroke-miterlimit: 10; fill: none; fill-rule: nonzero; opacity: 1;"  transform=" translate(-265, -276)" d="M 264.999 276 L 265.001 276" stroke-linecap="round" />
</g>
</svg>